<?xml version="1.0" ?><!DOCTYPE svg  PUBLIC '-//W3C//DTD SVG 1.1//EN'  'http://www.w3.org/Graphics/SVG/1.1/DTD/svg11.dtd'><svg enable-background="new 0 0 91 91" height="91px" id="Layer_1" version="1.1" viewBox="0 0 91 91" width="91px" xml:space="preserve" xmlns="http://www.w3.org/2000/svg" xmlns:xlink="http://www.w3.org/1999/xlink"><g><path d="M69.709,36.026c-3.387-2.799-8.43-2.578-11.603,0.457c-0.782-1.311-1.799-2.504-3.071-3.555   c-1.887-1.561-4.307-2.418-6.813-2.418c-2.896,0-5.699,1.154-7.689,3.164c-0.275,0.277-0.537,0.57-0.786,0.885   c-2.453-3.057-6.417-4.592-10.317-3.887c-3.341,0.607-5.964,2.441-7.797,5.449c-2.582,4.236-2.789,8.328-0.618,12.16   c1.138,2.012,2.621,3.98,4.534,6.018c3.475,3.689,7.588,7.195,12.949,11.035c0.389,0.275,0.807,0.418,1.246,0.418   c0.684,0,1.135-0.342,1.342-0.496c3.742-2.67,6.857-5.18,9.613-7.746c1.199,0.945,3.332,2.596,5.703,4.293   c0.172,0.121,0.611,0.387,1.187,0.387c0.375,0,0.808-0.111,1.263-0.449c3.718-2.652,6.771-5.211,9.336-7.824   c1.465-1.494,3.128-3.334,4.355-5.643c0.545-1.025,1.165-2.406,1.127-4.023C73.59,40.896,72.256,38.126,69.709,36.026z    M50.611,52.858c-3.01,3.068-6.448,5.977-10.872,9.18c-4.817-3.498-8.554-6.711-11.713-10.068c-1.724-1.836-3.05-3.59-4.053-5.361   c-1.562-2.756-1.383-5.525,0.562-8.717c1.325-2.174,3.125-3.439,5.502-3.873c0.449-0.082,0.902-0.123,1.352-0.123   c2.77,0,5.223,1.533,6.563,4.104l0.293,0.553c0.3,0.564,0.924,0.949,1.528,0.904c0.639-0.01,1.218-0.379,1.499-0.951   c0.493-1.006,1.025-1.781,1.678-2.438c1.356-1.369,3.278-2.156,5.273-2.156c1.718,0,3.367,0.582,4.646,1.639   c2.406,1.988,3.613,4.502,3.691,7.684c0.025,1.166-0.49,2.301-1,3.26C54.213,49.032,52.303,51.134,50.611,52.858z M69.542,46.677   c-1.025,1.928-2.487,3.539-3.781,4.859c-2.245,2.287-4.904,4.543-8.177,6.928c-1.771-1.287-3.363-2.516-4.429-3.348   c1.835-1.877,3.89-4.166,5.409-7.029c0.672-1.268,1.439-2.973,1.395-4.932c-0.027-1.119-0.176-2.182-0.428-3.195   c0.003-0.004,0.006-0.006,0.008-0.01c0.084-0.172,0.134-0.277,0.309-0.459c0.13-0.113,0.287-0.254,0.498-0.467   c1.901-1.918,5.128-2.09,7.198-0.377c1.778,1.465,2.671,3.326,2.728,5.686C70.286,44.985,70.068,45.688,69.542,46.677z"/></g></svg>